#!OML:ASF F:\VICON\USERDATA\INSTALL\rory3\rory3.ASF
:FULLY-SPECIFIED
:DEGREES
2824
root 4.94494 17.7307 -8.79332 -356.569 35.889 -355
lowerback 11.8876 2.48472 2.30848
upperback 0.945711 3.60841 -0.17215
thorax -5.5129 1.72345 -2.06839
lowerneck -16.476 0.604629 -10.468
upperneck 40.731 4.56828 2.95726
head 17.5338 0.932127 4.19622
rclavicle 1.85864e-014 -1.98785e-014
rhumerus -34.2892 -8.52316 -78.4347
rradius 35.642
rwrist 4.40665
rhand -18.3696 10.614
rfingers 7.12502
rthumb 7.91365 -19.2179
lclavicle 1.85864e-014 -1.98785e-014
lhumerus -25.6695 10.2082 85.1729
lradius 30.3785
lwrist -7.3399
lhand -20.5152 23.7263
lfingers 7.12502
lthumb 5.84238 53.6258
rfemur -9.1537 -3.69479 19.5039
rtibia 34.7214
rfoot -21.8405 -4.30566
rtoes 3.18959
lfemur -15.802 3.20422 -23.1494
ltibia 35.4102
lfoot -10.2476 -27.0314
ltoes -14.2426
2825
root 4.96593 17.7317 -8.8241 -356.739 35.8945 -355.058
lowerback 12.0826 2.46326 2.2676
upperback 0.961392 3.58469 -0.0826388
thorax -5.61453 1.7118 -1.9582
lowerneck -16.4322 0.593007 -10.359
upperneck 40.6582 4.47419 2.99458
head 17.4885 0.919618 4.17151
rclavicle -3.06128e-014 -1.59028e-014
rhumerus -34.138 -8.9364 -77.9568
rradius 35.2868
rwrist 4.8839
rhand -18.0716 10.2601
rfingers 7.12502
rthumb 8.20126 -19.5607
lclavicle -3.06128e-014 -1.59028e-014
lhumerus -25.818 10.1887 85.459
lradius 30.3409
lwrist -7.33973
lhand -20.6763 23.4476
lfingers 7.12502
lthumb 5.68692 53.3513
rfemur -8.98182 -3.5686 19.4255
rtibia 34.5893
rfoot -21.7308 -4.29386
rtoes 3.58722
lfemur -16.2508 3.49327 -22.8531
ltibia 36.1556
lfoot -9.71105 -27.8611
ltoes -15.9514
2826
root 4.9897 17.736 -8.85178 -356.946 35.8892 -355.173
lowerback 12.1606 2.39296 2.22838
upperback 1.04688 3.49624 0.0638974
thorax -5.5836 1.67247 -1.76997
lowerneck -16.4585 0.612415 -10.3569
upperneck 40.5792 4.46826 3.04468
head 17.4469 0.92641 4.18843
rclavicle -2.38542e-015 -6.36111e-015
rhumerus -33.8954 -9.27113 -77.4978
rradius 34.9915
rwrist 5.37043
rhand -17.8493 9.92994
rfingers 7.12502
rthumb 8.41574 -19.8824
lclavicle -2.38542e-015 -6.36111e-015
lhumerus -25.8757 10.5779 85.7109
lradius 30.262
lwrist -7.72778
lhand -20.513 23.4848
lfingers 7.12502
lthumb 5.84457 53.3842
rfemur -8.76417 -3.54294 19.3865
rtibia 34.4106
rfoot -21.6486 -4.21416
rtoes 3.71748
lfemur -16.6537 3.75322 -22.5012
ltibia 36.829
lfoot -9.71511 -28.4352
ltoes -18.9261
2827
root 5.01536 17.7423 -8.87993 -357.164 35.8926 -355.289
lowerback 12.2349 2.31861 2.26869
upperback 1.13073 3.40983 0.155362
thorax -5.54355 1.6318 -1.684
lowerneck -16.4641 0.60304 -10.4367
upperneck 40.5225 4.39498 3.22034
head 17.4112 0.910427 4.26614
rclavicle -1.21159e-013 1.35174e-014
rhumerus -33.7011 -9.7118 -77.0989
rradius 34.777
rwrist 5.67511
rhand -17.888 9.95133
rfingers 7.12502
rthumb 8.37843 -19.8625
lclavicle -1.21159e-013 1.35174e-014
lhumerus -25.9441 10.7027 85.9204
lradius 30.2623
lwrist -7.84251
lhand -20.2463 23.4503
lfingers 7.12502
lthumb 6.10205 53.3424
rfemur -8.50177 -3.53169 19.3454
rtibia 34.1787
rfoot -21.5619 -4.20114
rtoes 3.64761
lfemur -17.0271 3.97556 -22.1169
ltibia 37.4525
lfoot -9.05614 -29.0035
ltoes -18.7484
2828
root 5.04089 17.7523 -8.90954 -357.331 35.8341 -355.357
lowerback 12.3227 2.31023 2.25566
upperback 1.1838 3.40094 0.190708
thorax -5.53968 1.62878 -1.64106
lowerneck -16.3754 0.581439 -10.333
upperneck 40.4377 4.2457 3.34026
head 17.3486 0.887061 4.2681
rclavicle 5.20816e-014 7.95139e-015
rhumerus -33.5006 -10.4095 -76.6677
rradius 34.5096
rwrist 5.96051
rhand -18.3533 10.0779
rfingers 7.12502
rthumb 7.92939 -19.7533
lclavicle 5.20816e-014 7.95139e-015
lhumerus -26.0321 10.3203 86.1653
lradius 30.2989
lwrist -7.51609
lhand -19.977 22.7345
lfingers 7.12502
lthumb 6.362 52.619
rfemur -8.23504 -3.38062 19.2644
rtibia 33.8709
rfoot -21.3948 -4.25608
rtoes 3.82159
lfemur -17.3927 3.95916 -21.7356
ltibia 38.0677
lfoot -8.29401 -29.1216
ltoes -15.5252
2829
root 5.06604 17.7579 -8.93766 -357.603 35.7497 -355.489
lowerback 12.4651 2.31706 2.19312
upperback 1.28207 3.41028 0.28874
thorax -5.52458 1.63718 -1.50912
lowerneck -16.3141 0.550537 -10.1821
upperneck 40.2909 4.11679 3.33038
head 17.2648 0.862308 4.2029
rclavicle -8.99501e-014 -1.19271e-014
rhumerus -33.1741 -11.0847 -76.2042
rradius 34.1819
rwrist 6.22617
rhand -18.9061 10.0204
rfingers 7.12502
rthumb 7.39575 -19.8303
lclavicle -8.99501e-014 -1.19271e-014
lhumerus -26.0409 9.89744 86.4749
lradius 30.286
lwrist -7.13205
lhand -19.8554 21.765
lfingers 7.12502
lthumb 6.47938 51.6459
rfemur -7.86399 -3.21525 19.2398
rtibia 33.4745
rfoot -21.1952 -4.33691
rtoes 4.05055
lfemur -17.6684 3.68474 -21.2446
ltibia 38.6965
lfoot -8.34067 -28.4585
ltoes -12.3754
2830
root 5.09261 17.7577 -8.96722 -357.958 35.763 -355.7
lowerback 12.7091 2.2603 2.29557
upperback 1.3373 3.36089 0.375281
thorax -5.60314 1.61073 -1.4781
lowerneck -16.2216 0.538492 -10.0963
upperneck 40.1918 4.00807 3.40407
head 17.1924 0.846252 4.19292
rclavicle 1.43423e-013 -1.90833e-014
rhumerus -33.0216 -11.7155 -75.7826
rradius 33.9754
rwrist 6.45976
rhand -19.1413 9.73238
rfingers 7.12502
rthumb 7.16877 -20.1262
lclavicle 1.43423e-013 -1.90833e-014
lhumerus -26.2474 9.24689 86.7269
lradius 30.5159
lwrist -6.89837
lhand -19.7389 21.6982
lfingers 7.12502
lthumb 6.59184 51.5756
rfemur -7.37781 -3.24529 19.3029
rtibia 33.0168
rfoot -21.0151 -4.61374
rtoes 2.04773
lfemur -17.9057 3.3335 -20.6595
ltibia 39.3215
lfoot -9.70618 -26.9488
ltoes -14.1393
2831
root 5.12308 17.759 -8.99749 -358.227 35.7751 -355.847
lowerback 12.9108 2.1489 2.41418
upperback 1.36941 3.23864 0.421667
thorax -5.68205 1.54747 -1.484
lowerneck -16.1946 0.548972 -10.1023
upperneck 40.2077 3.95347 3.55678
head 17.1906 0.842923 4.25365
rclavicle -1.89839e-014 -1.03368e-014
rhumerus -32.9224 -12.254 -75.4516
rradius 33.8686
rwrist 6.52904
rhand -18.9792 9.17996
rfingers 7.12502
rthumb 7.32519 -20.6732
lclavicle -1.89839e-014 -1.03368e-014
lhumerus -26.5917 8.52997 86.9382
lradius 30.9558
lwrist -6.75499
lhand -20.019 22.3609
lfingers 7.12502
lthumb 6.32147 52.2466
rfemur -6.87645 -3.4401 19.3045
rtibia 32.5148
rfoot -20.7598 -5.01384
rtoes -2.09522
lfemur -18.1505 2.89917 -20.1259
ltibia 39.8963
lfoot -11.4614 -24.7406
ltoes -18.2269
2832
root 5.15676 17.7669 -9.02308 -358.327 35.6418 -355.878
lowerback 12.8163 2.09179 2.35049
upperback 1.4898 3.15164 0.45267
thorax -5.51106 1.51109 -1.39332
lowerneck -16.3069 0.53476 -10.0531
upperneck 40.2131 3.89438 3.61401
head 17.2257 0.829411 4.26402
rclavicle -9.30312e-014 -5.56597e-015
rhumerus -32.679 -12.8884 -75.187
rradius 33.8187
rwrist 6.61094
rhand -19.0207 8.84503
rfingers 7.12502
rthumb 7.28515 -21.0096
lclavicle -9.30312e-014 -5.56597e-015
lhumerus -26.6098 8.13043 87.092
lradius 31.0897
lwrist -6.9109
lhand -20.4139 22.7844
lfingers 7.12502
lthumb 5.94022 52.6811
rfemur -6.51154 -3.34036 19.1866
rtibia 32.0012
rfoot -20.488 -5.15563
rtoes -3.89344
lfemur -18.4088 2.42817 -19.6787
ltibia 40.3483
lfoot -12.8092 -22.2783
ltoes -21.1441
2833
root 5.19125 17.7794 -9.0455 -358.408 35.3858 -355.834
lowerback 12.8725 2.1129 2.15998
upperback 1.48827 3.15523 0.466955
thorax -5.55482 1.5163 -1.27473
lowerneck -16.2945 0.504547 -9.98347
upperneck 40.3003 3.79604 3.67821
head 17.2788 0.803758 4.2688
rclavicle 1.17482e-013 -1.19271e-014
rhumerus -32.7274 -13.4989 -74.8616
rradius 33.8407
rwrist 6.62549
rhand -19.3874 8.98749
rfingers 7.12502
rthumb 6.93123 -20.879
lclavicle 1.17482e-013 -1.19271e-014
lhumerus -26.7133 8.05139 87.1417
lradius 31.0129
lwrist -7.35377
lhand -20.4564 22.8671
lfingers 7.12502
lthumb 5.89918 52.765
rfemur -6.16704 -3.06098 18.9764
rtibia 31.5051
rfoot -20.2355 -5.06322
rtoes -4.29476
lfemur -18.534 1.92876 -19.2437
ltibia 40.6458
lfoot -13.4441 -20.1289
ltoes -21.796
2834
root 5.22647 17.7955 -9.07119 -358.454 35.1642 -355.71
lowerback 12.8851 2.10744 1.96237
upperback 1.5687 3.11928 0.460792
thorax -5.48826 1.50475 -1.16264
lowerneck -16.3818 0.467388 -10.0976
upperneck 40.3497 3.70686 3.87065
head 17.3273 0.771469 4.367
rclavicle 2.38542e-014 -1.59028e-015
rhumerus -32.5582 -14.1478 -74.5369
rradius 33.7761
rwrist 6.45105
rhand -19.51 9.1724
rfingers 7.12502
rthumb 6.81284 -20.698
lclavicle 2.38542e-014 -1.59028e-015
lhumerus -26.6636 8.11818 87.1798
lradius 30.9124
lwrist -7.91137
lhand -20.4089 22.8147
lfingers 7.12502
lthumb 5.94508 52.7113
rfemur -5.84071 -2.96054 18.6689
rtibia 31.0842
rfoot -19.9915 -4.92852
rtoes -4.98501
lfemur -18.5792 1.2264 -18.862
ltibia 40.7822
lfoot -13.6713 -18.0713
ltoes -21.3196
